<?xml version="1.0" encoding="utf-8"?>
<!-- Generator: Adobe Illustrator 26.3.1, SVG Export Plug-In . SVG Version: 6.00 Build 0)  -->
<svg version="1.1" id="Layer_1" xmlns="http://www.w3.org/2000/svg" xmlns:xlink="http://www.w3.org/1999/xlink" x="0px" y="0px"
	 viewBox="0 0 1081.99 1080" style="enable-background:new 0 0 1081.99 1080;" xml:space="preserve">
<style type="text/css">
	.st0{fill:#FFFFFF;}
	.st1{fill:#072941;}
	.st2{fill:#3E6D9B;}
	.st3{fill:#565656;}
</style>
<path class="st1" d="M830.56,884.51c25.91,0.01,42.81-27.19,31.33-50.41L561.13,210.69c-4.17-9.38-13.15-15.2-23.41-15.2
	s-19.23,5.82-23.41,15.2L220.18,831.36c-11.86,24.42,5.91,52.83,33.06,52.85L830.56,884.51z M596.12,399.49l213.12,424.63
	L656.66,637.44L617.71,749.9l-35.39,52.99l-46.11-42.38l-32.32-65.92l-32.5,50.14l-36.23-153.95l-165.09,235.7l215.77-430.43
	c6.37-14.29,17.01-26.56,30.98-33.61c15.76-7.95,31.11-7.56,47.17,1.17C578.44,371.47,589.43,384.46,596.12,399.49z"/>
</svg>
